<svg width="117" height="36" viewBox="0 0 117 36" fill="none" xmlns="http://www.w3.org/2000/svg">
<g clip-path="url(#clip0_3830_920)">
<path d="M42.4336 28.1147V8.42529H49.0624C51.9785 8.42529 54.4087 9.2701 56.3553 10.9572C58.302 12.6443 59.2766 15.0823 59.2766 18.2713C59.2766 19.8848 59.0043 21.3334 58.4572 22.6171C57.9126 23.9008 57.1645 24.9384 56.2154 25.7249C55.2662 26.5113 54.1847 27.1075 52.9709 27.5109C51.7572 27.9143 50.4543 28.1147 49.0624 28.1147H42.4336ZM46.6653 24.4589H48.64C50.4645 24.4589 51.9785 23.9668 53.1822 22.9824C54.3858 21.9981 54.9888 20.4277 54.9888 18.2713C54.9888 16.1148 54.3858 14.5394 53.1822 13.5449C51.9785 12.5504 50.4645 12.0532 48.64 12.0532H46.6653V24.4564V24.4589Z" fill="#212529"/>
<path d="M71.1836 23.3047H75.0209C74.7384 24.8243 73.9776 26.0421 72.7358 26.9604C71.494 27.8788 70.0003 28.338 68.2496 28.338C65.9747 28.338 64.1884 27.6023 62.8881 26.1309C61.5903 24.6594 60.9414 22.947 60.9414 20.9986C60.9414 19.0502 61.547 17.3225 62.7608 15.879C63.9746 14.4354 65.7101 13.7124 67.9672 13.7124C70.2243 13.7124 72.0309 14.4075 73.2142 15.7927C74.4 17.1804 74.9929 18.7939 74.9929 20.6307C74.9929 21.062 74.9725 21.4831 74.9369 21.8967H64.7253C64.8754 22.9089 65.2571 23.703 65.8678 24.2738C66.4785 24.8446 67.2725 25.1313 68.2522 25.1313C69.8884 25.1313 70.8655 24.5224 71.1861 23.3021L71.1836 23.3047ZM67.9672 16.5817C66.1605 16.5817 65.0993 17.528 64.7787 19.4231H71.0691C71.0131 18.5986 70.7128 17.9187 70.1657 17.3834C69.6212 16.8481 68.8858 16.5817 67.9646 16.5817H67.9672Z" fill="#212529"/>
<path d="M83.7659 28.3413C81.6029 28.3413 79.8395 27.6487 78.4756 26.261C77.1117 24.8733 76.4297 23.1304 76.4297 21.0298C76.4297 18.9292 77.1117 17.1863 78.4756 15.7986C79.8395 14.4109 81.6029 13.7183 83.7659 13.7183C85.6464 13.7183 87.2393 14.2333 88.5473 15.2658C89.8552 16.2984 90.5728 17.6277 90.7051 19.259H86.7558C86.6439 18.6222 86.3131 18.0971 85.7685 17.6835C85.2214 17.2726 84.5929 17.0645 83.8779 17.0645C82.8422 17.0645 82.0254 17.4298 81.4223 18.1605C80.8192 18.8911 80.5189 19.8476 80.5189 21.0298C80.5189 22.212 80.8243 23.1634 81.435 23.8839C82.0457 24.6069 82.8778 24.9672 83.9313 24.9672C84.6463 24.9672 85.2672 24.7693 85.794 24.3761C86.3207 23.9828 86.6591 23.4678 86.8093 22.8285H90.8145C90.6084 24.404 89.8399 25.7156 88.5142 26.7659C87.1884 27.8162 85.6031 28.3413 83.7608 28.3413H83.7659Z" fill="#212529"/>
<path d="M98.662 13.713C100.469 13.713 101.952 14.195 103.12 15.1616C104.286 16.1282 104.868 17.4068 104.868 19V28.1128H100.975V26.1441C100.731 26.8012 100.245 27.3314 99.5221 27.7323C98.7969 28.1356 97.947 28.3361 96.9698 28.3361C95.5957 28.3361 94.4786 27.9327 93.6135 27.1259C92.7483 26.3192 92.3157 25.3069 92.3157 24.0892C92.3157 22.7015 92.7915 21.6106 93.7407 20.8114C94.6898 20.0148 95.9469 19.6165 97.5068 19.6165H99.9038C100.242 19.6165 100.504 19.5176 100.693 19.3222C100.881 19.1243 100.975 18.8783 100.975 18.5764C100.975 17.9776 100.749 17.4931 100.298 17.1277C99.8478 16.7624 99.2269 16.5798 98.4355 16.5798C97.6442 16.5798 96.9927 16.7954 96.5322 17.2267C96.0716 17.658 95.8222 18.1933 95.784 18.83H92.2852C92.3793 17.3485 92.9951 16.1256 94.1326 15.1591C95.27 14.1925 96.779 13.7104 98.6595 13.7104L98.662 13.713ZM97.9546 25.4997C98.8961 25.4997 99.6341 25.2004 100.168 24.5991C100.705 24.0004 100.973 23.2317 100.973 22.293V22.0951H98.0946C97.4915 22.0951 97.0029 22.2651 96.6263 22.6025C96.2497 22.9399 96.0614 23.3814 96.0614 23.9243C96.0614 24.3936 96.2395 24.7716 96.5983 25.0634C96.9546 25.3551 97.4075 25.4997 97.9521 25.4997H97.9546Z" fill="#212529"/>
<path d="M109.017 28.1151V17.2011H106.281V13.9386H109.017V12.6726C109.017 11.191 109.5 10.0063 110.47 9.11579C111.439 8.22531 112.722 7.77881 114.32 7.77881H116.999V11.0413H114.854C114.271 11.0413 113.806 11.2113 113.457 11.5487C113.108 11.8862 112.935 12.3352 112.935 12.8984V13.9386H116.997V17.2011H112.935V28.1151H109.014H109.017Z" fill="#212529"/>
<path d="M27.4541 0.839355H7.65173C3.42509 0.839355 0 4.25411 0 8.46802V28.2107C0 32.4246 3.42509 35.8394 7.65173 35.8394H27.4541C31.6808 35.8394 35.1059 32.4246 35.1059 28.2107V8.46802C35.1059 4.25411 31.6808 0.839355 27.4541 0.839355ZM30.8818 18.3343H30.2354C28.1972 18.3343 28.1972 19.2577 28.1972 19.6992V22.4188C28.1972 26.3181 26.1436 28.3908 22.258 28.4111H21.6091H12.9242C8.99021 28.4111 6.91124 26.3384 6.91124 22.4188V8.26252H10.886V22.4188C10.886 23.842 11.4941 24.4484 12.9242 24.4484H21.6091V24.4534L22.2427 24.4408C23.3344 24.4205 24.225 23.5122 24.225 22.4163V19.6966C24.225 17.9334 24.8789 16.9212 25.7238 16.3504C24.8789 15.7796 24.225 14.7698 24.225 13.0092V8.25998H28.1997V13.0092C28.1997 13.4506 28.1997 14.369 30.238 14.369H30.8843V18.3317L30.8818 18.3343Z" fill="#212529"/>
</g>
<defs>
<clipPath id="clip0_3830_920">
<rect width="117" height="35" fill="white" transform="translate(0 0.839355)"/>
</clipPath>
</defs>
</svg>
