<svg width="117" height="36" viewBox="0 0 117 36" fill="none" xmlns="http://www.w3.org/2000/svg">
<g clip-path="url(#clip0_3830_553)">
<path d="M42.4336 27.7744V8.08496H49.0624C51.9785 8.08496 54.4087 8.92977 56.3553 10.6169C58.302 12.3039 59.2766 14.742 59.2766 17.9309C59.2766 19.5444 59.0043 20.993 58.4572 22.2768C57.9126 23.5605 57.1645 24.5981 56.2154 25.3845C55.2662 26.171 54.1847 26.7672 52.9709 27.1706C51.7572 27.5739 50.4543 27.7744 49.0624 27.7744H42.4336ZM46.6653 24.1186H48.64C50.4645 24.1186 51.9785 23.6264 53.1822 22.6421C54.3858 21.6577 54.9888 20.0874 54.9888 17.9309C54.9888 15.7745 54.3858 14.1991 53.1822 13.2046C51.9785 12.2101 50.4645 11.7128 48.64 11.7128H46.6653V24.1161V24.1186Z" fill="white"/>
<path d="M71.1836 22.9643H75.0209C74.7384 24.484 73.9776 25.7017 72.7358 26.6201C71.494 27.5385 70.0003 27.9977 68.2496 27.9977C65.9747 27.9977 64.1884 27.262 62.8881 25.7905C61.5903 24.3191 60.9414 22.6066 60.9414 20.6582C60.9414 18.7098 61.547 16.9822 62.7608 15.5386C63.9746 14.0951 65.7101 13.3721 67.9672 13.3721C70.2243 13.3721 72.0309 14.0672 73.2142 15.4524C74.4 16.8401 74.9929 18.4536 74.9929 20.2904C74.9929 20.7217 74.9725 21.1428 74.9369 21.5563H64.7253C64.8754 22.5686 65.2571 23.3626 65.8678 23.9335C66.4785 24.5043 67.2725 24.791 68.2522 24.791C69.8884 24.791 70.8655 24.1821 71.1861 22.9618L71.1836 22.9643ZM67.9672 16.2414C66.1605 16.2414 65.0993 17.1877 64.7787 19.0828H71.0691C71.0131 18.2583 70.7128 17.5784 70.1657 17.0431C69.6212 16.5078 68.8858 16.2414 67.9646 16.2414H67.9672Z" fill="white"/>
<path d="M83.7659 28.001C81.6029 28.001 79.8395 27.3084 78.4756 25.9207C77.1117 24.533 76.4297 22.7901 76.4297 20.6895C76.4297 18.5889 77.1117 16.846 78.4756 15.4582C79.8395 14.0705 81.6029 13.3779 83.7659 13.3779C85.6464 13.3779 87.2393 13.8929 88.5473 14.9255C89.8552 15.958 90.5728 17.2874 90.7051 18.9187H86.7558C86.6439 18.2819 86.3131 17.7567 85.7685 17.3432C85.2214 16.9322 84.5929 16.7242 83.8779 16.7242C82.8422 16.7242 82.0254 17.0895 81.4223 17.8202C80.8192 18.5508 80.5189 19.5072 80.5189 20.6895C80.5189 21.8717 80.8243 22.8231 81.435 23.5436C82.0457 24.2666 82.8778 24.6268 83.9313 24.6268C84.6463 24.6268 85.2672 24.429 85.794 24.0357C86.3207 23.6425 86.6591 23.1275 86.8093 22.4882H90.8145C90.6084 24.0636 89.8399 25.3752 88.5142 26.4256C87.1884 27.4759 85.6031 28.001 83.7608 28.001H83.7659Z" fill="white"/>
<path d="M98.662 13.3727C100.469 13.3727 101.952 13.8547 103.12 14.8213C104.286 15.7878 104.868 17.0665 104.868 18.6597V27.7725H100.975V25.8038C100.731 26.4609 100.245 26.9911 99.5221 27.3919C98.7969 27.7953 97.947 27.9957 96.9698 27.9957C95.5957 27.9957 94.4786 27.5924 93.6135 26.7856C92.7483 25.9788 92.3157 24.9666 92.3157 23.7488C92.3157 22.3611 92.7915 21.2702 93.7407 20.4711C94.6898 19.6745 95.9469 19.2762 97.5068 19.2762H99.9038C100.242 19.2762 100.504 19.1772 100.693 18.9819C100.881 18.784 100.975 18.5379 100.975 18.236C100.975 17.6373 100.749 17.1527 100.298 16.7874C99.8478 16.4221 99.2269 16.2394 98.4355 16.2394C97.6442 16.2394 96.9927 16.4551 96.5322 16.8864C96.0716 17.3176 95.8222 17.8529 95.784 18.4897H92.2852C92.3793 17.0081 92.9951 15.7853 94.1326 14.8187C95.27 13.8521 96.779 13.3701 98.6595 13.3701L98.662 13.3727ZM97.9546 25.1594C98.8961 25.1594 99.6341 24.86 100.168 24.2588C100.705 23.6601 100.973 22.8914 100.973 21.9527V21.7548H98.0946C97.4915 21.7548 97.0029 21.9248 96.6263 22.2622C96.2497 22.5996 96.0614 23.041 96.0614 23.5839C96.0614 24.0533 96.2395 24.4313 96.5983 24.723C96.9546 25.0148 97.4075 25.1594 97.9521 25.1594H97.9546Z" fill="white"/>
<path d="M109.017 27.7748V16.8608H106.281V13.5982H109.017V12.3323C109.017 10.8507 109.5 9.66593 110.47 8.77546C111.439 7.88498 112.722 7.43848 114.32 7.43848H116.999V10.701H114.854C114.271 10.701 113.806 10.871 113.457 11.2084C113.108 11.5458 112.935 11.9949 112.935 12.5581V13.5982H116.997V16.8608H112.935V27.7748H109.014H109.017Z" fill="white"/>
<path d="M27.4541 0.5H7.65173C3.42509 0.5 0 3.91476 0 8.12866V27.8713C0 32.0852 3.42509 35.5 7.65173 35.5H27.4541C31.6808 35.5 35.1059 32.0852 35.1059 27.8713V8.12866C35.1059 3.91476 31.6808 0.5 27.4541 0.5ZM30.8818 17.9949H30.2354C28.1972 17.9949 28.1972 18.9184 28.1972 19.3598V22.0794C28.1972 25.9788 26.1436 28.0515 22.258 28.0718H21.6091H12.9242C8.99021 28.0718 6.91124 25.9991 6.91124 22.0794V7.92317H10.886V22.0794C10.886 23.5027 11.4941 24.109 12.9242 24.109H21.6091V24.1141L22.2427 24.1014C23.3344 24.0811 24.225 23.1729 24.225 22.0769V19.3573C24.225 17.5941 24.8789 16.5818 25.7238 16.011C24.8789 15.4402 24.225 14.4305 24.225 12.6698V7.92063H28.1997V12.6698C28.1997 13.1113 28.1997 14.0296 30.238 14.0296H30.8843V17.9924L30.8818 17.9949Z" fill="white"/>
</g>
<defs>
<clipPath id="clip0_3830_553">
<rect width="117" height="35" fill="white" transform="translate(0 0.5)"/>
</clipPath>
</defs>
</svg>
